<svg xmlns="http://www.w3.org/2000/svg" width="303" height="303" viewBox="0 0 303 303">
  <g id="Group_16" data-name="Group 16" transform="translate(-210 -88)">
    <circle id="Ellipse_53" data-name="Ellipse 53" cx="151.5" cy="151.5" r="151.5" transform="translate(210 88)" fill="#eeab32"/>
    <g id="Group_15" data-name="Group 15" transform="translate(-2220.918 401.79)">
      <path id="Path_33" data-name="Path 33" d="M102.824,56.662A46.162,46.162,0,1,1,56.662,10.5,46.162,46.162,0,0,1,102.824,56.662Z" transform="translate(2525.756 -218.952)" fill="none" stroke="#fff" stroke-linecap="round" stroke-linejoin="round" stroke-width="12"/>
      <path id="Path_34" data-name="Path 34" d="M18,1.5V19.965" transform="translate(2564.418 -248.104)" fill="none" stroke="#fff" stroke-linecap="round" stroke-linejoin="round" stroke-width="12"/>
      <path id="Path_38" data-name="Path 38" d="M0,0V18.465" transform="matrix(0.719, 0.695, -0.695, 0.719, 2640.988, -222.941)" fill="none" stroke="#fff" stroke-linecap="round" stroke-linejoin="round" stroke-width="12"/>
      <path id="Path_40" data-name="Path 40" d="M0,0V18.465" transform="matrix(-0.743, 0.669, -0.669, -0.743, 2638.835, -99.632)" fill="none" stroke="#fff" stroke-linecap="round" stroke-linejoin="round" stroke-width="12"/>
      <path id="Path_37" data-name="Path 37" d="M0,0V18.465" transform="translate(2666.732 -162.29) rotate(90)" fill="none" stroke="#fff" stroke-linecap="round" stroke-linejoin="round" stroke-width="12"/>
      <path id="Path_35" data-name="Path 35" d="M18,31.5V49.965" transform="translate(2564.418 -127.94)" fill="none" stroke="#fff" stroke-linecap="round" stroke-linejoin="round" stroke-width="12"/>
      <path id="Path_39" data-name="Path 39" d="M0,0V18.465" transform="matrix(0.719, 0.695, -0.695, 0.719, 2536.675, -114.922)" fill="none" stroke="#fff" stroke-linecap="round" stroke-linejoin="round" stroke-width="12"/>
      <path id="Path_41" data-name="Path 41" d="M0,0V18.465" transform="matrix(-0.743, 0.669, -0.669, -0.743, 2538.356, -211.226)" fill="none" stroke="#fff" stroke-linecap="round" stroke-linejoin="round" stroke-width="12"/>
      <path id="Path_36" data-name="Path 36" d="M0,0V18.465" transform="translate(2516.569 -162.29) rotate(90)" fill="none" stroke="#fff" stroke-linecap="round" stroke-linejoin="round" stroke-width="12"/>
    </g>
  </g>
</svg>
